<?xml version="1.0" encoding="utf-8"?><svg xmlns="http://www.w3.org/2000/svg" xmlns:xlink="http://www.w3.org/1999/xlink"><symbol viewBox="0 0 512 512" id="balance" xmlns="http://www.w3.org/2000/svg"><circle cx="256" cy="256" r="256"/><path d="M98.667 146.654l24.59 24.59-43.84 157.673L193.25 442.75l-2.917 2.737 66.502 66.502C397.835 511.538 512 397.105 512 256c0-13.524-1.057-26.8-3.077-39.757l-95.589-95.589-314.667 26z"/><path d="M390.82 146.654h22.513v-26H98.667v26h22.514L74.183 291.546l16.171 5.246 43.979-135.589 43.98 135.586 16.171-5.246-46.998-144.889H243v261.833h-52.667v37h131.334v-37H269V146.654h95.514l-46.998 144.892 16.171 5.246 43.98-135.589 43.979 135.586 16.171-5.246z"/><path d="M390.82 146.654h22.513v-26H255.667v324.833h66v-37H269V146.654h95.514l-46.998 144.892 16.171 5.246 43.98-135.589 43.979 135.586 16.171-5.246zM157.833 341.654h-47c-24.853 0-45-20.147-45-45v-23h137v23c0 24.853-20.147 45-45 45z"/><path d="M401.167 341.654h-47c-24.853 0-45-20.147-45-45v-23h137v23c0 24.853-20.148 45-45 45z"/></symbol><symbol viewBox="0 0 118.268 118.268" id="criminal" xmlns="http://www.w3.org/2000/svg"><path d="M81.622 27.05c.833-5.947 6.33-10.093 12.277-9.26 5.946.833 10.093 6.33 9.26 12.277-.833 5.947-6.331 10.094-12.278 9.26-5.947-.833-10.092-6.33-9.259-12.277zm34.069 26.682l-10.433-1.569-11.533-10.337a4.514 4.514 0 0 0-1.427-.868 9.914 9.914 0 0 0-5.971-2h-.038a9.988 9.988 0 0 0-1.843.184 4.6 4.6 0 0 0-3.771.896l-11.741 9.271-.309.244a3.331 3.331 0 0 0-1.217 2.048l-1.432 8.264-.708 4.139-.721 4.371a3.015 3.015 0 0 0 2.157 3.38 3.002 3.002 0 0 0 3.695-2.088l.126-.455L74.5 54.909l1.874-1.2.058 15.288a9.917 9.917 0 0 0 1.006 4.304l-.4 13.246-9.091 20.024a3.289 3.289 0 0 0 1.341 4.187 3.276 3.276 0 0 0 4.474-1.191l11.58-19.988c.229-.398.39-.865.44-1.353l.039-.369.94-8.943a9.955 9.955 0 0 0 2.421-.384l5.657 7.809 3.246 20.581a3.287 3.287 0 0 0 3.466 2.755 3.273 3.273 0 0 0 3.032-3.498l-1.568-21.963a3.466 3.466 0 0 0-.443-1.455l-.204-.353-6.315-10.98a9.98 9.98 0 0 0 .32-2.502l-.051-13.582L101 58.894l.347.263a3.063 3.063 0 0 0 1.867.626l12.034-.028a3.029 3.029 0 0 0 .443-6.023zM59.43 42.499c-2.456-1.783-4.143-3.568-4.215-3.645l-.223-.237.854-1.174-1.662-1.207-14.593 10.887a3.703 3.703 0 0 1-3.432.525l-1.418 11.604v.007l9.733 10.146.246.257a3.92 3.92 0 0 1 1.023 3.384l-4.459 24.781a3.272 3.272 0 0 1-3.799 2.641 3.285 3.285 0 0 1-2.677-3.559L37.171 74.2l-8.201-7.088a9.861 9.861 0 0 1-3.047.84l-.271 7.104-.017.408a3.438 3.438 0 0 1-.365 1.408l-9.997 19.623a3.274 3.274 0 0 1-4.404 1.432c-1.504-.766-2.157-2.551-1.569-4.094l7.495-19.469-.534-11.271a9.925 9.925 0 0 1-1.312-6.257l2.092-17.125-3.085.859-3.766 6.674-2.289 4.132-1.111 2.055-.527 1.004-.234.463-.083.168-.013.011c.004-.015-.009.021.001-.015a3.018 3.018 0 0 1-5.929-.958c.013-.179.039-.358.077-.536l.065-.264.033-.11.088-.269.138-.383.241-.624.466-1.152.937-2.228 1.898-4.392 3.853-8.726a3.452 3.452 0 0 1 1.988-1.857l.337-.121 9.818-3.523a9.956 9.956 0 0 1 7.123-3.426 9.606 9.606 0 0 1-2.907-9.268 9.533 9.533 0 0 1 1.229-2.939c-.31-.183-.419-.566-.241-1.329l.519-2.255a4.687 4.687 0 0 1 5.62-3.512l10.05 2.318a4.69 4.69 0 0 1 3.515 5.625l-.418 1.824c1.324 1.266 2.396 2.814 2 4.312-.353 1.332-1.821.863-3.482-.207-.028.159-.048.319-.084.481-.983 4.251-4.65 7.178-8.797 7.416a9.96 9.96 0 0 1 3.31 8.691l-.055.447.706.746 10.818-6.708-2.104-1.585 2.104-2.793 3.188 2.4 1.2-.743a3.021 3.021 0 0 1 4.16.976c.671 1.082.558 2.42-.157 3.388l1.483 1.077-.065.093 13.066 9.483-.61.842-.089.044c-3.815 1.859-8.411-.506-11.596-2.818zM6.033 54.453a3.061 3.061 0 0 1-.096.602l.005-.019a2.083 2.083 0 0 0 .091-.583zm43.391-22.668l2.04-1.265-2.49-1.877-1.346 1.787 1.796 1.355zm6.894 4.961l1.232-1.699-.898-.651-.017.014-1.745 1.302 1.428 1.034zm14.277 7.911l.033-.047-12.432-9.021-1.693 2.331-.021-.017-.469.645a33.364 33.364 0 0 0 3.88 3.316c2.984 2.167 7.251 4.398 10.702 2.793zm-10.267-6.595l.612 3.863.415-.066-.614-3.863-.413.066zm1.119.812l.612 3.862.416-.065-.613-3.863-.415.066z"/></symbol><symbol viewBox="0 0 792 792" id="geo" xmlns="http://www.w3.org/2000/svg"><path d="M396 173.25c-68.359 0-123.75 55.391-123.75 123.75S327.641 420.75 396 420.75 519.75 365.359 519.75 297 464.359 173.25 396 173.25zm0 173.25c-27.299 0-49.5-22.226-49.5-49.5s22.201-49.5 49.5-49.5 49.5 22.201 49.5 49.5-22.201 49.5-49.5 49.5zM396 0C231.982 0 99 133.006 99 297c0 59.351 17.424 114.617 47.396 161.023L344 763.686C355.014 780.714 374.195 792 396 792s40.986-11.286 52-28.339l197.604-305.662C675.576 411.617 693 356.351 693 297 693 133.006 560.043 0 396 0zm187.233 417.706L396 707.355 208.766 417.73c-23.24-35.962-35.516-77.715-35.516-120.73 0-122.834 99.94-222.75 222.75-222.75S618.75 174.166 618.75 297c0 43.016-12.276 84.769-35.517 120.706z"/></symbol><symbol viewBox="0 0 512 512" id="libra" xmlns="http://www.w3.org/2000/svg"><path d="M380.927 512H131.073c-23.011 0-41.731-18.72-41.731-41.731 0-23.011 18.722-41.732 41.731-41.732h24.323c6.42-27.894 31.454-48.757 61.269-48.757h78.67c7.791 0 14.109 6.317 14.109 14.109s-6.318 14.109-14.109 14.109h-78.67c-19.105 0-34.648 15.543-34.648 34.648 0 7.793-6.318 14.109-14.109 14.109h-36.835c-7.451 0-13.512 6.061-13.512 13.514 0 7.451 6.061 13.512 13.512 13.512h249.855c7.451 0 13.512-6.061 13.512-13.512 0-7.451-6.061-13.514-13.512-13.514h-36.835c-7.791 0-14.109-6.317-14.109-14.109s6.318-14.109 14.109-14.109h36.835c23.011 0 41.731 18.722 41.731 41.732C422.658 493.28 403.938 512 380.927 512z"/><path d="M256 406.589c-7.791 0-14.109-6.317-14.109-14.109V47.502c0-7.793 6.318-14.109 14.109-14.109s14.109 6.317 14.109 14.109V392.48c0 7.792-6.316 14.109-14.109 14.109z"/><path d="M408.612 99.706H103.388c-7.791 0-14.109-6.317-14.109-14.109s6.318-14.109 14.109-14.109h305.225c7.791 0 14.109 6.317 14.109 14.109s-6.317 14.109-14.11 14.109zM39.296 285.156v2.399c0 35.397 28.695 64.091 64.091 64.091 35.397 0 64.091-28.695 64.091-64.091v-2.399H39.296z"/><path d="M103.388 365.755c-43.121 0-78.202-35.081-78.202-78.202v-2.399c0-7.793 6.318-14.109 14.109-14.109H167.48c7.791 0 14.109 6.317 14.109 14.109v2.399c0 43.122-35.081 78.202-78.201 78.202zm-48.598-66.49c5.285 21.929 25.071 38.271 48.598 38.271s43.313-16.343 48.598-38.271H54.79zM42.287 247.86c-1.793 0-3.615-.343-5.374-1.069-7.203-2.97-10.636-11.218-7.666-18.422L90.344 80.217a14.109 14.109 0 1 1 26.088 0l61.094 148.151c2.97 7.204-.461 15.452-7.666 18.422-7.208 2.971-15.452-.461-18.424-7.664l-48.049-116.521-48.05 116.521c-2.246 5.443-7.506 8.734-13.05 8.734zM344.521 285.156v2.399c0 35.397 28.695 64.091 64.091 64.091 35.397 0 64.093-28.695 64.093-64.091v-2.399H344.521z"/><path d="M408.612 365.755c-43.121 0-78.202-35.081-78.202-78.202v-2.399c0-7.793 6.318-14.109 14.109-14.109h128.185c7.791 0 14.109 6.317 14.109 14.109v2.399c.001 43.122-35.08 78.202-78.201 78.202zm-48.597-66.49c5.285 21.929 25.071 38.271 48.598 38.271 23.527 0 43.313-16.343 48.598-38.271h-97.196zm109.699-51.405c-5.546 0-10.803-3.289-13.05-8.734l-48.052-116.521-48.05 116.521c-2.971 7.204-11.222 10.636-18.424 7.664-7.203-2.97-10.636-11.218-7.666-18.422l61.094-148.151a14.11 14.11 0 0 1 26.088 0l61.096 148.151c2.97 7.204-.461 15.452-7.666 18.422a14.046 14.046 0 0 1-5.37 1.07z"/><circle cx="255.999" cy="47.502" r="33.392"/><path d="M256 95.002c-26.192 0-47.502-21.309-47.502-47.502S229.808 0 256 0s47.502 21.309 47.502 47.502-21.308 47.5-47.502 47.5zm0-66.784c-10.633 0-19.283 8.65-19.283 19.283s8.65 19.283 19.283 19.283 19.283-8.65 19.283-19.283c0-10.632-8.649-19.283-19.283-19.283z"/></symbol><symbol viewBox="0 0 14 14" id="mail" xmlns="http://www.w3.org/2000/svg"><path d="M7 9L5.268 7.484.316 11.729c.18.167.423.271.691.271h11.986c.267 0 .509-.104.688-.271L8.732 7.484 7 9z"/><path d="M13.684 2.271A1.007 1.007 0 0 0 12.993 2H1.007c-.267 0-.509.104-.689.273L7 8l6.684-5.729zM0 2.878v8.308l4.833-4.107zm9.167 4.201L14 11.186V2.875z"/></symbol><symbol viewBox="0 0 31.012 31.012" id="mail-bottom" xmlns="http://www.w3.org/2000/svg"><path d="M28.512 26.529H2.5a2.503 2.503 0 0 1-2.5-2.5V6.982c0-1.379 1.122-2.5 2.5-2.5h26.012c1.378 0 2.5 1.121 2.5 2.5v17.047c0 1.379-1.122 2.5-2.5 2.5zM2.5 5.482c-.827 0-1.5.673-1.5 1.5v17.047c0 .827.673 1.5 1.5 1.5h26.012c.827 0 1.5-.673 1.5-1.5V6.982c0-.827-.673-1.5-1.5-1.5H2.5z"/><path d="M15.506 18.018c-.665 0-1.33-.221-1.836-.662L.891 6.219a.5.5 0 1 1 .658-.754l12.778 11.137c.64.557 1.72.556 2.358 0L29.46 5.466a.497.497 0 0 1 .706.049.5.5 0 0 1-.048.705L17.342 17.355c-.506.442-1.171.663-1.836.663z"/></symbol><symbol viewBox="0 0 578.106 578.106" id="phone" xmlns="http://www.w3.org/2000/svg"><path d="M577.83 456.128c1.225 9.385-1.635 17.545-8.568 24.48l-81.396 80.781c-3.672 4.08-8.465 7.551-14.381 10.404-5.916 2.857-11.729 4.693-17.439 5.508-.408 0-1.635.105-3.676.309-2.037.203-4.689.307-7.953.307-7.754 0-20.301-1.326-37.641-3.979s-38.555-9.182-63.645-19.584c-25.096-10.404-53.553-26.012-85.376-46.818-31.823-20.805-65.688-49.367-101.592-85.68-28.56-28.152-52.224-55.08-70.992-80.783-18.768-25.705-33.864-49.471-45.288-71.299-11.425-21.828-19.993-41.616-25.705-59.364S4.59 177.362 2.55 164.51-.306 141.56.102 134.216c.408-7.344.612-11.424.612-12.24.816-5.712 2.652-11.526 5.508-17.442s6.324-10.71 10.404-14.382L98.022 8.756c5.712-5.712 12.24-8.568 19.584-8.568 5.304 0 9.996 1.53 14.076 4.59s7.548 6.834 10.404 11.322l65.484 124.236c3.672 6.528 4.692 13.668 3.06 21.42-1.632 7.752-5.1 14.28-10.404 19.584l-29.988 29.988c-.816.816-1.53 2.142-2.142 3.978s-.918 3.366-.918 4.59c1.632 8.568 5.304 18.36 11.016 29.376 4.896 9.792 12.444 21.726 22.644 35.802s24.684 30.293 43.452 48.653c18.36 18.77 34.68 33.354 48.96 43.76 14.277 10.4 26.215 18.053 35.803 22.949 9.588 4.896 16.932 7.854 22.031 8.871l7.648 1.531c.816 0 2.145-.307 3.979-.918 1.836-.613 3.162-1.326 3.979-2.143l34.883-35.496c7.348-6.527 15.912-9.791 25.705-9.791 6.938 0 12.443 1.223 16.523 3.672h.611l118.115 69.768c8.571 5.308 13.67 12.038 15.303 20.198z"/></symbol><symbol viewBox="0 0 29.731 29.731" id="phone-bottom" xmlns="http://www.w3.org/2000/svg"><path d="M23.895 29.731c-1.237 0-2.731-.31-4.374-.93-3.602-1.358-7.521-4.042-11.035-7.556C4.971 17.73 2.287 13.81.928 10.208-.307 6.933-.31 4.245.921 3.015c.177-.177.357-.367.543-.563C2.587 1.271 3.856-.058 5.538.002 6.697.05 7.82.77 8.97 2.201c3.398 4.226 1.866 5.732.093 7.478l-.313.31c-.29.29-.838 1.633 4.26 6.731 1.664 1.664 3.083 2.882 4.217 3.619.714.464 1.991 1.166 2.515.642l.315-.318c1.744-1.769 3.25-3.296 7.473.099 1.431 1.15 2.15 2.272 2.198 3.433.069 1.681-1.27 2.953-2.452 4.075-.195.186-.385.366-.562.542-.611.612-1.588.919-2.819.919zM5.418 1C4.223 1 3.144 2.136 2.189 3.141c-.192.202-.378.398-.561.581-.917.916-.824 3.323.236 6.134 1.31 3.472 3.913 7.266 7.33 10.683 3.416 3.415 7.208 6.018 10.681 7.327 2.811 1.062 5.218 1.152 6.133.237.183-.183.379-.369.581-.56 1.027-.976 2.192-2.082 2.141-3.309-.035-.843-.649-1.75-1.825-2.695-3.519-2.83-4.503-1.831-6.135-.176l-.32.323c-.78.781-2.047.608-3.767-.51-1.193-.776-2.667-2.038-4.379-3.751-4.231-4.23-5.584-6.819-4.26-8.146l.319-.315c1.659-1.632 2.66-2.617-.171-6.138-.947-1.175-1.853-1.789-2.696-1.825L5.418 1z"/></symbol></svg>